<?xml version="1.0" encoding="utf-8"?>
<!-- Generator: Adobe Illustrator 19.2.0, SVG Export Plug-In . SVG Version: 6.00 Build 0)  -->
<svg version="1.1" xmlns="http://www.w3.org/2000/svg" xmlns:xlink="http://www.w3.org/1999/xlink" x="0px" y="0px"
	 viewBox="0 0 223 66" style="enable-background:new 0 0 223 66;" xml:space="preserve">
<style type="text/css">
	.st0{fill:#9cce37;}
</style>
<g id="Layer_1">
	<g>
		<path class="st0" d="M56,41.1c-1.2,0-2,0-1-1.9c0.1-0.2,0.2-0.5,0.4-0.9L59,30h12c1.2,0,1.6,0.9,1.6,1.7c0,0.2-0.1,0.5-0.2,0.8
			L72,33.7h5l0.6-1.8c0.1-0.3,0.2-0.6,0.2-0.9c0-0.9,0.3-1.5-0.7-2c-0.8-0.4-2-0.9-3-0.9H55L50.2,39c-0.1,0.3-0.2,0.6-0.2,0.9
			c0,0.9-0.1,1.7,1,2.2c0.8,0.4,2,0.9,3,0.9h18l1-1.9L56,41.1L56,41.1z M96,28.1H82L75,43h5l6-13h7c1.2,0,2,0.9,2,1.7
			c0,0.3-0.1,0.5-0.2,0.8L94.1,34h5l1-2c0.1-0.3,0.2-0.6,0.2-0.9c0-0.9-0.5-1.6-1.6-2.1C97.8,28.6,97,28.1,96,28.1L96,28.1z
			 M122,28.1h-18L98.6,39c-0.1,0.2-0.2,0.5-0.2,0.9c0,0.9,0.5,1.7,1.5,2.2c0.8,0.4,2,0.9,3,0.9h18l5-11c0.1-0.3,0.2-0.6,0.2-0.9
			c0-0.9-0.5-1.6-1.5-2.1C123.8,28.6,123,28.1,122,28.1L122,28.1z M117,41.1h-12c-1.2,0-1.4-1.1-1.4-1.9c0-0.3,0.1-0.5,0.2-0.8
			L108,30h11c1.1,0,2,0.9,2,1.7c0,0.2-0.1,0.5-0.2,0.8L117,41.1L117,41.1z M129,43h26l7-15h-5l-6,13.1h-8l6-13.1h-5l-6,13.1h-6
			c-1.2,0-1.6-1.1-1.6-1.9c0-0.3,0.1-0.5,0.2-0.8L136,28h-5l-5.7,11c-0.1,0.3-0.2,0.6-0.2,0.9c0,0.9-0.2,1.7,0.9,2.2
			C126.8,42.5,127.9,43,129,43L129,43z M191.1,23l-5.6,1.1L183,28h-13c-2,0-2,0.7-3.4,1.2c-1.7,0.7-2.8,1.6-3.5,2.7l-4.1,8.6
			c-0.1,1.4,0.6,2.4,3,2.4h20L191.1,23L191.1,23z M166,41.1c-1.1-0.1-1.7-1.4-1.6-2l3.1-6.6c0.3-0.6,0.8-1.1,1.5-1.5s1.3-1,2-1h12
			l-5,11.1H166L166,41.1z M190,43l7-15l-6,1l-6,14H190L190,43z M200,23l-6,1l-2,3l6-1L200,23z M218,28.1L200,28l-7,15h5l6-13h11
			c1.2,0,1.8,0.9,1.8,1.7c0,0.3-0.1,0.5-0.2,0.8l-4.8,10.1h5l5-10.6c0.1-0.2,0.2-0.5,0.2-0.9c0-0.9-0.5-1.6-1.6-2.1
			C219.6,28.6,219,28.1,218,28.1L218,28.1z"/>
	</g>
</g>
<g id="Layer_2">
	<g>
		<path class="st0" d="M48.4,27.4c0.2,0,0.3-0.3,0-0.4c-1.5-0.3-3.9-0.6-6.6-0.6c-6,0-13.1,1.3-14,6.2c0,0.2-0.1,1.1-0.1,1.3
			c0.5,0.1,0.9,0.2,1.3,0.2c0,0.2-0.1,0.5-0.1,0.7c0,0.5,0,0.9,0,1.3c-0.4,0-0.8-0.1-1.2-0.2c0.5,5.1,3.3,6.5,6.2,6.6
			c0.1,0,0.1,0,0.2,0c1.8,0,3.7-0.5,5.1-1c0.2-0.1,0.1-0.4-0.1-0.4c-2.7,0.4-6.9-0.1-6-6.9C33.9,28.7,44.6,27.6,48.4,27.4z
			 M28.4,33.3c0-0.2,0-0.5,0.1-0.5c0.8-3.9,7.3-5.5,10.8-5.5c-3.3,0.8-6.8,2.3-7.6,5.1c-0.1,0.3-0.2,0.8-0.3,1.2
			c-0.6-0.1-1-0.1-1.3-0.1C29.8,33.5,29.5,33.5,28.4,33.3z M34.1,41.8c-3.2,0-5-1.6-5.6-5c0.9,0.1,1.9,0.2,2.8,0.3
			c0.4,2.8,1.7,4.1,3.1,4.7C34.3,41.8,34.2,41.8,34.1,41.8z"/>
		<path class="st0" d="M16.8,31.3c-0.1,0.3-0.2,1.7-0.2,2c0.8,0.1,1.4,0.2,1.9,0.3c0,0.3-0.1,0.6-0.1,1c0,0.8,0,1.5,0,2.1
			c-0.6-0.1-1.2-0.2-1.8-0.3c0.7,7.9,5.2,10,9.7,10c0.7,0,1.5-0.1,2.2-0.2c2.6-0.3,5.1-1.2,6.7-1.9c0.2-0.1,0.1-0.4-0.1-0.4
			c-3.8,0.8-11.8,1-10.2-10.3c1.2-8.9,18.9-10.2,23.8-10.4c0.2,0,0.3-0.3,0-0.4c-2.2-0.5-6.3-1-10.7-1C29,22,18.2,23.9,16.8,31.3z
			 M26.4,45.7c-5.1,0-8.1-2.8-8.9-8.4c1.6,0.2,3.4,0.4,5.1,0.5c0.6,5.3,3.4,7.2,6.2,7.8C28,45.6,27.2,45.7,26.4,45.7z M23.2,31.1
			c-0.1,0.5-0.3,1.4-0.5,2.1c-1.2-0.1-2-0.2-2.6-0.3c-0.9-0.1-1.5-0.1-2.7-0.3c0-0.5,0.1-1.1,0.1-1.2c1.5-7.9,14.9-8.8,20.5-8.8
			c0.4,0,0.9,0,1.3,0C32.4,23.3,24.7,25.4,23.2,31.1z"/>
		<g>
			<path class="st0" d="M3.8,27.1C3.8,27.1,3.8,27.1,3.8,27.1C3.8,27.1,3.8,27.1,3.8,27.1z"/>
			<path class="st0" d="M3.8,27.2C3.8,27.2,3.8,27.2,3.8,27.2C3.8,27.2,3.8,27.2,3.8,27.2C3.8,27.2,3.8,27.1,3.8,27.2
				C3.8,27.1,3.8,27.2,3.8,27.2z"/>
			<g>
				<path class="st0" d="M3.6,28.5c0-0.2,0.1-0.3,0.1-0.5C3.6,28.2,3.6,28.3,3.6,28.5z"/>
				<path class="st0" d="M3.7,27.9c0-0.2,0.1-0.3,0.1-0.4C3.7,27.6,3.7,27.7,3.7,27.9z"/>
				<path class="st0" d="M51.6,18.9c-4.1-1.6-14-3.7-23.9-3.7c-11,0-22,2.6-24.5,11.5c-0.1,0.4-0.5,2.5-0.6,2.9
					c1.2,0.3,2,0.5,2.7,0.7c-0.1,0.4-0.2,0.8-0.2,1.3C5,32.9,4.9,34,4.9,35.1c-0.9-0.2-1.7-0.4-2.6-0.6c0,13.3,7.6,16.6,15,16.6
					c1.1,0,2.1-0.1,3.2-0.2c3.3-0.4,6.6-1.3,8.6-2c0.2-0.1,0.2-0.4-0.1-0.4c-5.3,0.7-18.2,0.5-14.2-17.1c3.1-13.6,30.7-12.5,36.8-12
					C51.7,19.3,51.8,19,51.6,18.9z M3.7,28c0,0.2-0.1,0.3-0.1,0.5C3.6,28.3,3.6,28.2,3.7,28z M3.8,27.4c0,0.1-0.1,0.3-0.1,0.4
					C3.7,27.7,3.7,27.6,3.8,27.4z M14.5,46.9c1.7,1.7,3.9,2.7,6.6,3.1c-1.2,0.2-2.5,0.3-3.8,0.3c-9.2,0-14-5-14.3-14.9
					c2.5,0.6,5.3,1.2,8,1.6C11.1,41.3,12.3,44.7,14.5,46.9z M37.2,17.3c-13.6,0-22,3.5-24.3,10.2c-0.3,0.8-0.8,2.3-1.1,3.4
					c-0.7-0.2-1.3-0.3-1.9-0.4c-0.8-0.2-1.4-0.3-1.9-0.4c-1.2-0.2-1.9-0.3-4.5-1c0,0,0-0.1,0-0.1c0.1-0.5,0.2-1.3,0.3-1.8
					c0,0,0,0,0,0c0,0,0,0,0,0c0,0,0-0.1,0-0.1c0,0,0-0.1,0-0.1c0,0,0,0,0,0c2.6-9.1,14.4-11,23.8-11h0c5.7,0,11.4,0.7,15.9,1.6
					C41.6,17.4,39.4,17.3,37.2,17.3z"/>
			</g>
			<path class="st0" d="M3.9,27C3.9,27,3.9,27,3.9,27C3.9,27,3.9,27,3.9,27c0,0.1,0,0.1,0,0.1C3.9,27,3.9,27,3.9,27z"/>
		</g>
	</g>
</g>
</svg>
