<svg xmlns="http://www.w3.org/2000/svg" viewBox="0 0 66.88 66.89"><defs><style>.cls-1{isolation:isolate;}.cls-2{fill:#f86615;}.cls-3{fill:#cb520f;}.cls-4{fill:#ccc;}.cls-5{fill:#cce312;}.cls-6{fill:#bdbdbd;mix-blend-mode:multiply;}</style></defs><title>Sans titre - 1</title><g class="cls-1"><g id="Calque_1" data-name="Calque 1"><path class="cls-2" d="M689.25,390.71c-.13.22-.26.43-.39.64a13.77,13.77,0,0,1-1.46,1.88,12.36,12.36,0,0,1-1.73,1.52,8.78,8.78,0,0,1-7.33,1.7v0a6.39,6.39,0,0,1-1.58-.65,6.49,6.49,0,0,1-1.36-1v0c-2.79-2.74-3.14-7.87-.6-12.31a11.54,11.54,0,0,1,7.85-5.88,6.83,6.83,0,0,1,7.68,4.39,9.3,9.3,0,0,1,.44,1.48,10.64,10.64,0,0,1,.2,2.21,12.3,12.3,0,0,1-1,4.61A13.57,13.57,0,0,1,689.25,390.71Z" transform="translate(-649.53 -350.85)"/><path class="cls-3" d="M690.94,380.13a4.59,4.59,0,0,1-.61.83,6.83,6.83,0,0,0-7.68-4.39,4.53,4.53,0,0,1,4.06-3.23,4.48,4.48,0,0,1,2,.34,4.64,4.64,0,0,1,.51.25,4.85,4.85,0,0,1,.46.31,4.53,4.53,0,0,1,1.22,5.89Z" transform="translate(-649.53 -350.85)"/><path class="cls-4" d="M691.86,374.38l-.82,1.43a4.51,4.51,0,0,0-1.33-1.56l.47-.82a1,1,0,0,1,1.32-.36,1,1,0,0,1,.45.58A1,1,0,0,1,691.86,374.38Z" transform="translate(-649.53 -350.85)"/><path class="cls-4" d="M689.22,372.86l-.47.82a4.48,4.48,0,0,0-2-.34l.82-1.44a1,1,0,0,1,1.32-.36,1,1,0,0,1,.36,1.32Z" transform="translate(-649.53 -350.85)"/><path class="cls-4" d="M700.25,378.06l-3.2,5.61a1.1,1.1,0,0,1-.88.55l-5.2.43a10.45,10.45,0,0,0-.2-2.21l4.64-.38,2.92-5.1a1.11,1.11,0,1,1,1.93,1.1Z" transform="translate(-649.53 -350.85)"/><path class="cls-4" d="M689,397.71l-3.2,5.6a1.11,1.11,0,0,1-1.93-1.1l2.91-5.1-1.14-2.36a12,12,0,0,0,1.73-1.52l1.66,3.44A1.1,1.1,0,0,1,689,397.71Z" transform="translate(-649.53 -350.85)"/><path class="cls-4" d="M698.93,389.57l-4,2.36a1.13,1.13,0,0,1-.72.14l-5.4-.72c.14-.21.27-.42.4-.64a13.12,13.12,0,0,0,.71-1.45h0l4.2.56,3.63-2.16a1.11,1.11,0,1,1,1.14,1.9Z" transform="translate(-649.53 -350.85)"/><path class="cls-4" d="M680.13,366.56l-3.21,5.61a1.1,1.1,0,0,0,0,1l2.27,4.7a10.34,10.34,0,0,1,2-.95l-2-4.2,2.92-5.1a1.11,1.11,0,1,0-1.93-1.1Z" transform="translate(-649.53 -350.85)"/><path class="cls-4" d="M668.9,386.21l-3.2,5.61a1.11,1.11,0,0,0,1.93,1.1l2.92-5.1,2.61-.21a12,12,0,0,1,.44-2.26l-3.81.31A1.11,1.11,0,0,0,668.9,386.21Z" transform="translate(-649.53 -350.85)"/><path class="cls-4" d="M670.89,373.54l0,4.61a1.12,1.12,0,0,0,.24.69l3.36,4.28c.11-.23.23-.45.36-.67a12.89,12.89,0,0,1,.89-1.35h0l-2.62-3.33,0-4.22a1.11,1.11,0,1,0-2.21,0Z" transform="translate(-649.53 -350.85)"/><path class="cls-5" d="M713.72,381.6h-3.86a27,27,0,0,0-24.19-24.19v-3.86a2.69,2.69,0,1,0-5.38,0v3.86A27,27,0,0,0,656.1,381.6h-3.87a2.69,2.69,0,0,0,0,5.39h3.87a27,27,0,0,0,24.19,24.19V415a2.72,2.72,0,0,0,.79,1.91,2.69,2.69,0,0,0,4.59-1.91v-3.86A27,27,0,0,0,709.86,387h3.86a2.69,2.69,0,0,0,0-5.39Zm-28.06,26.08v-7.06a2.67,2.67,0,0,0-.79-1.9,2.69,2.69,0,0,0-4.59,1.9v7.06a23.56,23.56,0,0,1-20.7-20.7h7.05a2.69,2.69,0,0,0,0-5.39h-7.05a23.56,23.56,0,0,1,20.7-20.7V368a2.69,2.69,0,0,0,5.38,0V360.9a23.56,23.56,0,0,1,20.7,20.7h-7.06a2.69,2.69,0,0,0,0,5.39h7.06A23.56,23.56,0,0,1,685.67,407.68Z" transform="translate(-649.53 -350.85)"/><path class="cls-6" d="M706.37,387a23.56,23.56,0,0,1-20.7,20.69v-4.17a.94.94,0,0,0,.15-.2l3.21-5.6a1.12,1.12,0,0,0,0-1l-1.66-3.44a13.87,13.87,0,0,0,1.46-1.87h0l5.38.73a1.15,1.15,0,0,0,.72-.15l4-2.36a1.11,1.11,0,1,0-1.13-1.9l-3.63,2.16-4.2-.57a12.4,12.4,0,0,0,1-4.6l5.2-.44a1,1,0,0,0,.46-.14,1.49,1.49,0,0,0,0,.21,2.69,2.69,0,0,0,2.69,2.7Z" transform="translate(-649.53 -350.85)"/><path class="cls-6" d="M706.37,381.6h-7.06a2.65,2.65,0,0,0-1.25.31l2.19-3.85a1.11,1.11,0,0,0-1.92-1.1l-2.92,5.1-4.64.38a10,10,0,0,0-.44-1.47,4.34,4.34,0,0,0,.61-.84,4.51,4.51,0,0,0,.1-4.32l.82-1.43a1,1,0,0,0,.1-.74,1,1,0,0,0-.45-.58,1,1,0,0,0-1.32.36l-.47.82a4.24,4.24,0,0,0-.46-.3,4.1,4.1,0,0,0-.51-.25l.47-.83a.94.94,0,0,0,.09-.73.93.93,0,0,0-.45-.58,1,1,0,0,0-1.32.36l-.82,1.44a4.49,4.49,0,0,0-4.06,3.23h0a9,9,0,0,0-1.48.38l-2-4.2,1.77-3.08.17.19a2.69,2.69,0,0,0,4.59-1.9V360.9A23.57,23.57,0,0,1,706.37,381.6Z" transform="translate(-649.53 -350.85)"/><path class="cls-6" d="M686.81,397.11l-1.38,2.41a2.59,2.59,0,0,0-.55-.8,2.72,2.72,0,0,0-1.9-.78,2.68,2.68,0,0,0-2.69,2.68v7.06A23.56,23.56,0,0,1,659.59,387h7.06a2.72,2.72,0,0,0,1.9-.79,2.69,2.69,0,0,0-1.9-4.6h-7.06a23.57,23.57,0,0,1,20.7-20.7v5.46a.64.64,0,0,0-.16.2l-3.2,5.61a1.08,1.08,0,0,0,0,1l2.27,4.7h0a12.25,12.25,0,0,0-3.47,3.19l-2.6-3.33v-4.22a1.11,1.11,0,0,0-2.21,0l0,4.61a1.13,1.13,0,0,0,.24.69l3.35,4.27a12.25,12.25,0,0,0-.87,2.23l-3.8.31a1.12,1.12,0,0,0-.88.56l-3.2,5.6a1.11,1.11,0,1,0,1.93,1.1l2.91-5.1,2.61-.21a8.77,8.77,0,0,0,2.25,7.17v0a6.37,6.37,0,0,0,1.36,1,6.55,6.55,0,0,0,1.58.65v0a8.78,8.78,0,0,0,7.33-1.7Z" transform="translate(-649.53 -350.85)"/></g></g></svg>