<?xml version="1.0" encoding="utf-8"?>
<!-- Generator: Adobe Illustrator 21.1.0, SVG Export Plug-In . SVG Version: 6.00 Build 0)  -->
<svg version="1.1" id="Layer_1" xmlns="http://www.w3.org/2000/svg" xmlns:xlink="http://www.w3.org/1999/xlink" x="0px" y="0px"
	 viewBox="0 0 500 500" style="enable-background:new 0 0 500 500;" xml:space="preserve">
<style type="text/css">
	.st0{fill:#223154;}
	.st1{fill:#F01A30;}
	.st2{fill:#FFFFFF;}
	.st3{fill:#E6E6E6;}
	.st4{fill:#333333;}
	.st5{fill:none;stroke:#333333;stroke-width:0.5;stroke-miterlimit:10;}
</style>
<path class="st0" d="M239.7,285.7c-8.5,0-14.9-2.5-19.2-7.5c-4.3-5-6.5-11.6-6.5-19.8v-48h23.1v43.1c0,4,0.9,7.1,2.7,9.2
	c1.8,2.1,4.6,3.2,8.3,3.2c4,0,7.1-1.4,9.4-4.1c2.3-2.7,3.4-6.3,3.4-10.6v-40.8h23.3v73.1H262v-9h-0.4c-2.7,3.6-5.7,6.4-9.1,8.3
	C249.1,284.8,244.8,285.7,239.7,285.7z"/>
<path class="st0" d="M411.7,285.6c-5.8,0-11.1-0.9-15.8-2.8c-4.7-1.9-8.7-4.5-11.9-7.9c-3.2-3.4-5.7-7.4-7.5-12
	c-1.8-4.6-2.6-9.6-2.6-15c0-5.3,0.9-10.2,2.6-14.8c1.8-4.6,4.3-8.6,7.5-11.9c3.2-3.4,7.1-6,11.5-7.9c4.4-1.9,9.4-2.8,14.8-2.8
	c5.1,0,9.6,0.8,13.7,2.4c4,1.6,7.6,3.7,10.6,6.5c4.3,3.9,7.4,8.8,9.5,14.8c2.1,6,3.1,12.6,3,19.8H396c0.7,4.8,2.4,8.6,5,11.4
	c2.6,2.8,6.2,4.2,11,4.2c3,0,5.4-0.6,7.4-1.9c1.9-1.2,3.4-3,4.4-5.2h22.1c-0.7,3.2-2.1,6.3-4.2,9.2c-2,2.9-4.6,5.4-7.8,7.6
	c-3,2.1-6.3,3.7-9.9,4.9C420.3,285,416.2,285.6,411.7,285.6z M424.2,240.3c-0.5-4.3-1.9-7.6-4.3-10.1c-2.4-2.5-5.5-3.7-9.2-3.7
	c-4.3,0-7.7,1.2-10,3.7c-2.3,2.5-3.8,5.9-4.6,10.1H424.2z"/>
<path class="st0" d="M333.5,210.4c-7,0-14,2.7-19.6,6.1l0-26.5H291v93.6h22l0.1-6.4c5.9,3.8,13.6,6.6,21.1,6.5
	c19.9-0.3,36-16.8,36-36.7C370.1,226.8,353.7,210.4,333.5,210.4z M350.2,247.2c0,9.1-7.4,16.5-16.5,16.5h-0.6
	c-9.1,0-16.5-7.4-16.5-16.5v0c0-9.1,7.4-16.5,16.5-16.5h0.6C342.8,230.7,350.2,238.1,350.2,247.2L350.2,247.2z"/>
<g>
	<path class="st1" d="M151.4,258.6h0.4c6.9,0,12.5,5.6,12.5,12.5l0,0c0,6.9-5.6,12.5-12.5,12.5h-0.4c-6.9,0-12.5-5.6-12.5-12.5l0,0
		C138.8,264.2,144.4,258.6,151.4,258.6z"/>
	<path class="st0" d="M135.4,218.5c-2.1-6-5.1-11-9-15.2c-3.9-4.2-8.5-7.4-14-9.8c-5.4-2.3-11.4-3.5-18-3.5H53.6v95.5h39.3
		c6.1,0,11.5-0.7,16.3-2.2c4.8-1.5,9.1-3.6,12.8-6.5c5.3-4.1,9.4-9.4,12.3-16c2.8-6.5,4.3-14.1,4.3-22.5
		C138.6,231.1,137.5,224.4,135.4,218.5z M77.5,259.3v-43l37.1,21.5L77.5,259.3z"/>
</g>
<g>
	<path class="st0" d="M171.7,228.6h-11.4v-18.1h11.4V190h22.7v20.5h13.3v18h-13.3v31.9c0,2.9,0.7,4.8,2.2,5.7c1.5,1,3.4,1.4,5.9,1.4
		c1,0,2,0,3-0.1c1,0,1.7-0.1,2.1-0.1v17c-1,0.3-2.6,0.5-4.8,0.8c-2.1,0.2-4.8,0.4-7.9,0.4c-3.4,0-6.5-0.3-9.3-0.9
		c-2.8-0.6-5.3-1.7-7.3-3.2c-2.1-1.5-3.7-3.6-4.9-6.2c-1.1-2.6-1.7-5.9-1.7-9.8V228.6z"/>
</g>
</svg>
