<?xml version="1.0" encoding="utf-8"?>
<!-- Generator: Adobe Illustrator 21.1.0, SVG Export Plug-In . SVG Version: 6.00 Build 0)  -->
<svg version="1.1" id="Layer_1" xmlns="http://www.w3.org/2000/svg" xmlns:xlink="http://www.w3.org/1999/xlink" x="0px" y="0px"
	 viewBox="0 0 500 500" style="enable-background:new 0 0 500 500;" xml:space="preserve">
<style type="text/css">
	.st0{fill:#223154;}
	.st1{fill:#F01A30;}
	.st2{fill:#FFFFFF;}
	.st3{fill:#E6E6E6;}
	.st4{fill:#333333;}
	.st5{fill:none;stroke:#333333;stroke-width:0.5;stroke-miterlimit:10;}
</style>
<path class="st1" d="M336.7,279.4h0.9c14.1,0,25.6,11.5,25.6,25.6v0c0,14.1-11.5,25.6-25.6,25.6h-0.9c-14.1,0-25.6-11.5-25.6-25.6v0
	C311.1,290.9,322.6,279.4,336.7,279.4z"/>
<path class="st2" d="M304,197.3c-4.4-12.2-10.5-22.6-18.5-31.2c-7.9-8.6-17.5-15.2-28.6-20c-11.1-4.7-23.4-7.1-36.9-7.1h-83.4v195.6
	h80.4c12.4,0,23.5-1.5,33.4-4.5c9.8-3,18.6-7.4,26.3-13.3c10.9-8.4,19.3-19.3,25.2-32.7c5.8-13.4,8.8-28.8,8.8-46.1
	C310.6,223.1,308.4,209.5,304,197.3z M185.7,280.8v-87.9l75.9,44L185.7,280.8z"/>
</svg>
