<svg id="Calque_1" data-name="Calque 1" xmlns="http://www.w3.org/2000/svg" viewBox="0 0 1920 540"><defs><style>.cls-1{fill:#212121;}.cls-2{fill:red;}</style></defs><title>Plan de travail 1</title><path class="cls-1" d="M556.51,118.65q-20.1-37.72-55.93-58.18T419.35,40H233.6l99.54,57.47h86.22q41.86,0,63.62,27.08t21.76,79.58v18.21q-.48,50.61-22.47,77.8t-63.62,27.2H329.72l-98.72,57H420.06q45.17-.23,81.12-20.81t55.69-57.94q19.74-37.36,19.75-85.37V204.38Q576.61,156.37,556.51,118.65Z"/><polygon class="cls-2" points="433.59 212.3 232.86 96.4 232.86 328.19 433.59 212.3"/><path class="cls-1" d="M902.62,98.41H797.14V385.27H726.2V98.41H622.14V40.94H902.62Z"/><path class="cls-1" d="M1076.44,359.26q-25.31,30.75-70,30.74-41.15,0-62.79-23.65t-22.11-69.29V129.39h68.35v165.5q0,40,36.42,40,34.76,0,47.77-24.15V129.39h68.58V385.27h-64.32Z"/><path class="cls-1" d="M1424.78,259.69q0,61.49-26.25,95.9T1325.22,390q-41.63,0-66.45-31.93l-3.07,27.2h-61.49V22h68.35V152.33q23.65-27.67,62.2-27.67,46.82,0,73.43,34.41t26.6,96.84Zm-68.35-5q0-38.78-12.3-56.64t-36.66-17.85q-32.64,0-44.93,26.72v101q12.53,27,45.41,27,33.11,0,43.51-32.64Q1356.44,286.65,1356.44,254.73Z"/><path class="cls-1" d="M1584.65,390q-56.29,0-91.64-34.53t-35.36-92v-6.62q0-38.54,14.9-68.94t42.21-46.82q27.31-16.43,62.31-16.44,52.5,0,82.65,33.11t30.15,93.89v27.91H1526.95q3.31,25.07,20,40.2t42.21,15.14q39.49,0,61.72-28.62l33.58,37.6q-15.38,21.76-41.62,33.94T1584.65,390Zm-7.8-210.24q-20.34,0-33,13.78T1527.66,233h95.07v-5.47q-.48-22.8-12.3-35.27T1576.85,179.76Z"/><path class="cls-1" d="M270.49,430.77h-13.7v37.14h-11V430.77H232.35v-8.49h38.14Z"/><path class="cls-1" d="M313.27,467.91H302.33V448.85h-16.2v19.05h-11V422.28h11v18.11h16.2V422.28h10.94Z"/><path class="cls-1" d="M348.53,448.54h-17.3v10.91h20.43v8.46H320.23V422.28h31.5v8.49h-20.5v9.62h17.3Z"/><path class="cls-1" d="M372.13,467.91V422.28h16.39q8.81,0,13.4,3.23a10.74,10.74,0,0,1,4.59,9.37,10.86,10.86,0,0,1-1.63,6,9.5,9.5,0,0,1-4.8,3.7,9.62,9.62,0,0,1,5.48,3.51,10.21,10.21,0,0,1,1.91,6.27q0,6.71-4.25,10.08t-12.58,3.43Zm11-26.61h5.74q3.6,0,5.14-1.32a4.68,4.68,0,0,0,1.54-3.8,4.92,4.92,0,0,0-1.66-4.16q-1.66-1.27-5.36-1.27h-5.39Zm0,7.21v10.94h7.21a6.85,6.85,0,0,0,4.58-1.36,4.77,4.77,0,0,0,1.6-3.84q0-5.7-5.67-5.74Z"/><path class="cls-1" d="M425.25,467.91h-11V422.28h11Z"/><path class="cls-1" d="M470.25,462.27a17.69,17.69,0,0,1-7.43,4.54,32.06,32.06,0,0,1-10.72,1.72q-9,0-14.32-5.48t-5.74-15.26l0-3.95a27.23,27.23,0,0,1,2.38-11.77,17.69,17.69,0,0,1,6.82-7.74,19.28,19.28,0,0,1,10.26-2.71q8.52,0,13.24,3.9t5.5,11.64H459.63q-.56-3.82-2.44-5.45a7.89,7.89,0,0,0-5.33-1.63,7.18,7.18,0,0,0-6.39,3.51q-2.26,3.51-2.29,10v2.76q0,6.83,2.33,10.26t7.35,3.43q4.29,0,6.39-1.91v-7.08h-7.65v-7.55h18.65Z"/><path class="cls-1" d="M514,462.27a17.69,17.69,0,0,1-7.43,4.54,32.06,32.06,0,0,1-10.72,1.72q-9,0-14.32-5.48t-5.74-15.26l0-3.95a27.23,27.23,0,0,1,2.38-11.77,17.69,17.69,0,0,1,6.82-7.74,19.28,19.28,0,0,1,10.26-2.71q8.52,0,13.24,3.9t5.5,11.64H503.38q-.56-3.82-2.44-5.45a7.89,7.89,0,0,0-5.33-1.63,7.18,7.18,0,0,0-6.39,3.51q-2.26,3.51-2.29,10v2.76q0,6.83,2.33,10.26t7.35,3.43q4.29,0,6.39-1.91v-7.08h-7.65v-7.55H514Z"/><path class="cls-1" d="M548.7,448.54H531.4v10.91h20.43v8.46H520.4V422.28h31.5v8.49H531.4v9.62h17.3Z"/><path class="cls-1" d="M579.85,455.78a4.52,4.52,0,0,0-1.71-3.76,21.24,21.24,0,0,0-6-2.79,57.33,57.33,0,0,1-7-2.79q-8.87-4.35-8.87-12a10.73,10.73,0,0,1,2.21-6.69,14.29,14.29,0,0,1,6.25-4.51,24.33,24.33,0,0,1,9.09-1.61,21.28,21.28,0,0,1,8.82,1.75,14,14,0,0,1,6.06,5,13.05,13.05,0,0,1,2.16,7.41h-11a5.52,5.52,0,0,0-1.71-4.33,6.66,6.66,0,0,0-4.62-1.54,7.51,7.51,0,0,0-4.65,1.3,3.83,3.83,0,0,0,.17,6.49,23.71,23.71,0,0,0,6.61,2.95,40.55,40.55,0,0,1,7.77,3.28q7.4,4.26,7.4,11.75a11.14,11.14,0,0,1-4.51,9.4q-4.51,3.42-12.38,3.42a24.55,24.55,0,0,1-10-2,15.14,15.14,0,0,1-6.77-5.45,14.21,14.21,0,0,1-2.27-8h11q0,3.67,1.9,5.41t6.16,1.74a7.08,7.08,0,0,0,4.31-1.17A3.88,3.88,0,0,0,579.85,455.78Z"/><path class="cls-1" d="M632.32,430.77h-13.7v37.14h-11V430.77H594.18v-8.49h38.14Z"/><path class="cls-1" d="M651.06,467.91V422.28h14.7A21.62,21.62,0,0,1,676.63,425a19.28,19.28,0,0,1,7.54,7.74,23.38,23.38,0,0,1,2.74,11.2v2.1a23.51,23.51,0,0,1-2.65,11.24,19.36,19.36,0,0,1-7.46,7.77,21.14,21.14,0,0,1-10.73,2.84Zm11-37.14v28.68h3.82a8.56,8.56,0,0,0,7.27-3.37q2.54-3.37,2.54-10v-2q0-6.61-2.54-10a8.71,8.71,0,0,0-7.4-3.35Z"/><path class="cls-1" d="M720.85,448.54h-17.3v10.91H724v8.46H692.55V422.28h31.5v8.49h-20.5v9.62h17.3Z"/><path class="cls-1" d="M765.39,452.46a16.66,16.66,0,0,1-2.57,8.42,15.51,15.51,0,0,1-6.6,5.66,22.46,22.46,0,0,1-9.7,2q-9,0-14.17-5.86t-5.17-16.55v-2.26a27.62,27.62,0,0,1,2.33-11.74,17.68,17.68,0,0,1,6.72-7.77,18.76,18.76,0,0,1,10.15-2.74q8.3,0,13.35,4.37t5.74,12h-11q-.13-4.17-2.1-6t-6-1.82a6.57,6.57,0,0,0-6,3.07q-1.91,3.07-2,9.81v3.23q0,7.3,1.83,10.44t6.31,3.13a8.45,8.45,0,0,0,5.8-1.79q2-1.79,2.13-5.67Z"/><path class="cls-1" d="M798.89,448.54h-17.3v10.91H802v8.46H770.59V422.28h31.5v8.49h-20.5v9.62h17.3Z"/><path class="cls-1" d="M844.62,467.91H833.68l-16.17-28.39v28.39h-11V422.28h11l16.14,28.39V422.28h11Z"/><path class="cls-1" d="M886.49,430.77h-13.7v37.14h-11V430.77H848.35v-8.49h38.14Z"/><path class="cls-1" d="M908.08,451.77h-6v16.14h-11V422.28h18q8.12,0,12.69,3.6t4.58,10.18a14.82,14.82,0,0,1-1.93,7.89,13.68,13.68,0,0,1-6,5.07l9.53,18.42v.47H916.14Zm-6-8.46h7a6.25,6.25,0,0,0,4.72-1.65,6.38,6.38,0,0,0,1.58-4.6,6.45,6.45,0,0,0-1.6-4.63,6.19,6.19,0,0,0-4.7-1.68h-7Z"/><path class="cls-1" d="M958.92,459.38H943.84l-2.63,8.52H929.46l16.74-45.63h10.34l16.86,45.63H961.58Zm-12.44-8.49h9.81l-4.92-15.83Z"/><path class="cls-1" d="M987.72,459.45h19.15v8.46H976.72V422.28h11Z"/><path class="cls-1" d="M1023.23,467.91h-11V422.28h11Z"/><path class="cls-1" d="M1043.23,459.45H1065v8.46H1029.5v-5.8l21.75-31.34h-21.88v-8.49h35.45v5.64Z"/><path class="cls-1" d="M1098.32,448.54H1081v10.91h20.43v8.46H1070V422.28h31.5v8.49H1081v9.62h17.3Z"/><path class="cls-1" d="M1105.94,467.91V422.28h14.7a21.62,21.62,0,0,1,10.88,2.74,19.27,19.27,0,0,1,7.54,7.74,23.37,23.37,0,0,1,2.74,11.2v2.1a23.52,23.52,0,0,1-2.65,11.24,19.37,19.37,0,0,1-7.46,7.77,21.15,21.15,0,0,1-10.73,2.84Zm11-37.14v28.68h3.82a8.56,8.56,0,0,0,7.27-3.37q2.54-3.37,2.54-10v-2q0-6.61-2.54-10a8.71,8.71,0,0,0-7.4-3.35Z"/><path class="cls-1" d="M1181.13,455.5l9.09-33.22h12.29l-15.36,45.63h-12l-15.23-45.63h12.19Z"/><path class="cls-1" d="M1217.54,467.91h-11V422.28h11Z"/><path class="cls-1" d="M1225.19,467.91V422.28h14.7a21.62,21.62,0,0,1,10.88,2.74,19.27,19.27,0,0,1,7.54,7.74A23.37,23.37,0,0,1,1261,444v2.1a23.52,23.52,0,0,1-2.65,11.24,19.37,19.37,0,0,1-7.46,7.77,21.15,21.15,0,0,1-10.73,2.84Zm11-37.14v28.68H1240a8.56,8.56,0,0,0,7.27-3.37q2.54-3.37,2.54-10v-2q0-6.61-2.54-10a8.71,8.71,0,0,0-7.4-3.35Z"/><path class="cls-1" d="M1295,448.54h-17.3v10.91h20.43v8.46h-31.43V422.28h31.5v8.49h-20.5v9.62H1295Z"/><path class="cls-1" d="M1341.24,446a26.91,26.91,0,0,1-2.48,11.82,18.3,18.3,0,0,1-7,7.91,19.6,19.6,0,0,1-10.39,2.77,19.87,19.87,0,0,1-10.34-2.68,18.26,18.26,0,0,1-7-7.66,26.14,26.14,0,0,1-2.65-11.44v-2.57a27,27,0,0,1,2.46-11.83,18.25,18.25,0,0,1,7.05-7.91,20.87,20.87,0,0,1,20.79,0,18.59,18.59,0,0,1,7.07,7.85,26.27,26.27,0,0,1,2.55,11.67Zm-11.19-1.91q0-6.8-2.27-10.33a7.29,7.29,0,0,0-6.5-3.53q-8.27,0-8.74,12.41l0,3.35q0,6.71,2.22,10.31a7.28,7.28,0,0,0,6.61,3.6,7.19,7.19,0,0,0,6.42-3.54q2.26-3.54,2.29-10.19Z"/><path class="cls-1" d="M1373.9,452.43v15.48h-11V422.28h18.21a21.22,21.22,0,0,1,9.26,1.93,14.53,14.53,0,0,1,6.24,5.49,15,15,0,0,1,2.21,8.07,13.2,13.2,0,0,1-4.78,10.67q-4.78,4-13.12,4Zm0-8.49h7.21a6.8,6.8,0,0,0,4.87-1.6,5.94,5.94,0,0,0,1.68-4.51,7.34,7.34,0,0,0-1.72-5.11,6.1,6.1,0,0,0-4.7-1.94h-7.33Z"/><path class="cls-1" d="M1415.68,459.45h19.15v8.46h-30.15V422.28h11Z"/><path class="cls-1" d="M1466,459.38h-15.08l-2.63,8.52h-11.75l16.74-45.63h10.34l16.86,45.63h-11.82Zm-12.44-8.49h9.81l-4.92-15.83Z"/><path class="cls-1" d="M1515.84,430.77h-13.7v37.14h-11V430.77H1477.7v-8.49h38.14Z"/><path class="cls-1" d="M1549.22,449.73h-17.74v18.18h-11V422.28H1551v8.49h-19.53v10.5h17.74Z"/><path class="cls-1" d="M1594.23,446a26.91,26.91,0,0,1-2.48,11.82,18.3,18.3,0,0,1-7,7.91,19.6,19.6,0,0,1-10.39,2.77,19.87,19.87,0,0,1-10.34-2.68,18.26,18.26,0,0,1-7-7.66,26.14,26.14,0,0,1-2.65-11.44v-2.57a27,27,0,0,1,2.46-11.83,18.25,18.25,0,0,1,7.05-7.91,20.87,20.87,0,0,1,20.79,0,18.59,18.59,0,0,1,7.07,7.85,26.27,26.27,0,0,1,2.55,11.67ZM1583,444.12q0-6.8-2.27-10.33a7.29,7.29,0,0,0-6.5-3.53q-8.27,0-8.74,12.41l0,3.35q0,6.71,2.22,10.31a7.28,7.28,0,0,0,6.61,3.6,7.19,7.19,0,0,0,6.42-3.54q2.26-3.54,2.29-10.19Z"/><path class="cls-1" d="M1616.85,451.77h-6v16.14h-11V422.28h18q8.12,0,12.69,3.6t4.58,10.18a14.81,14.81,0,0,1-1.93,7.89,13.68,13.68,0,0,1-6,5.07l9.53,18.42v.47h-11.78Zm-6-8.46h7a6.24,6.24,0,0,0,4.72-1.65,6.37,6.37,0,0,0,1.58-4.6,6.45,6.45,0,0,0-1.6-4.63,6.19,6.19,0,0,0-4.7-1.68h-7Z"/><path class="cls-1" d="M1656.22,422.28,1666.4,454l10.15-31.75H1691v45.63h-11V457.25l1.07-21.81-11,32.47h-7.27l-11.06-32.5,1.07,21.84v10.66h-11V422.28Z"/></svg>